#!OML:ASF H:\ColoradoDance\Project 1\Capture day 1\Session 8\male.ASF
:FULLY-SPECIFIED
:DEGREES
29
upperback -3.531980 -3.676260 -0.831495
rfoot -23.173800 -7.738410
lradius 34.533798
lthumb 4.845160 419.259003
rradius 27.545799
lwrist -7.035450
rhand -12.453600 12.284900
rhumerus -41.822201 -16.423100 -62.971901
lowerneck -5.631400 0.356400 3.754100
lhand -21.548100 -330.665009
ltibia 0.000000
head 3.189460 0.185977 -2.315300
rwrist 8.469770
lfingers 7.125020
rtoes 7.767840
lowerback 0.633341 -2.710900 -1.572450
rfingers 7.125020
lclavicle -0.000000 -0.000000
upperneck 6.649230 0.550091 -5.067130
rfemur -59.986401 -23.724400 16.326900
thorax -3.946110 -1.787690 0.169436
rclavicle -0.000000 -0.000000
rtibia 69.187103
lfoot -15.598500 13.192500
lhumerus -40.514198 1.448130 65.851799
rthumb 13.619800 -17.249599
root -36.222198 18.380100 -29.675200 30.826099 55.818001 -345.149994
ltoes -25.236700
lfemur 12.992900 5.294650 -12.895800
30
upperback -2.865530 -4.586730 -2.059470
rfoot -9.448380 -26.573299
lradius 41.238998
lthumb 7.453470 421.679993
rradius 21.645100
lwrist -6.262660
rhand -11.929600 15.980100
rhumerus -58.728802 -24.492701 -54.546799
lowerneck -8.664620 -2.135540 5.802070
lhand -18.846300 -328.169006
ltibia -0.000000
head 4.748510 -1.528710 -3.393650
rwrist 20.978201
lfingers 7.125020
rtoes 9.219340
lowerback -0.521788 -3.389760 -6.014380
rfingers 7.125020
lclavicle 0.000000 -0.000000
upperneck 11.748100 -2.716190 -7.298020
rfemur -60.630402 -31.491400 12.335700
thorax -2.365080 -2.163200 1.290640
rclavicle 0.000000 -0.000000
rtibia 61.735401
lfoot -17.412201 15.001900
lhumerus -40.262199 -0.805792 69.845802
rthumb 14.124800 -13.519800
root -36.112701 18.628000 -32.291599 33.207001 57.074402 -337.787994
ltoes -25.941200
lfemur 12.265200 1.984520 -23.988701
31
upperback -2.823940 -4.084900 -1.853400
rfoot -5.973380 -15.120300
lradius 28.035999
lthumb 11.638400 416.665009
rradius 20.431700
lwrist -15.031800
rhand -21.408400 6.468960
rhumerus -63.405998 -19.893499 -66.398102
lowerneck -11.793600 -2.629150 7.241030
lhand -14.508900 -332.992004
ltibia 0.000000
head 5.676830 -2.005980 -4.517700
rwrist 4.604730
lfingers 7.125020
rtoes -1.699620
lowerback -0.402921 -2.999060 -8.438850
rfingers 7.125020
lclavicle -0.000000 0.000000
upperneck 13.428200 -3.386520 -9.601020
rfemur -65.910500 -30.866800 26.632000
thorax -2.255510 -1.856490 2.838030
rclavicle -0.000000 0.000000
rtibia 47.368900
lfoot -15.859400 17.153500
lhumerus -45.631401 9.548040 60.697899
rthumb 4.979970 -23.452499
root -35.312801 18.597300 -32.924000 28.748800 57.135101 -341.721008
ltoes -28.167601
lfemur 14.919600 1.729410 -25.569401
32
upperback -2.777050 -3.259000 -0.747314
rfoot -5.635410 -7.751840
lradius 22.878099
lthumb 3.969970 419.415985
rradius 21.760401
lwrist -13.744900
rhand -39.745300 17.921700
rhumerus -59.524399 -14.807000 -70.673599
lowerneck -6.747430 -2.258870 2.307450
lhand -22.454399 -330.527008
ltibia 0.000000
head 2.638960 -1.567920 -0.966349
rwrist -2.313590
lfingers 7.125020
rtoes -1.147430
lowerback -0.730808 -2.418290 -6.748120
rfingers 7.125020
lclavicle 0.000000 0.000000
upperneck 4.796380 -3.149820 -1.340990
rfemur -62.502499 -13.359300 17.470900
thorax -2.129620 -1.482870 3.028760
rclavicle 0.000000 0.000000
rtibia 50.825100
lfoot -18.166100 16.231199
lhumerus -53.605099 17.876200 47.669701
rthumb -12.722200 -11.670700
root -33.512501 18.253099 -31.608299 24.297800 61.000702 -348.893005
ltoes -21.728201
lfemur 20.648899 -2.769180 -19.776400
33
upperback -2.141780 -2.265130 1.282180
rfoot -12.548200 -15.883900
lradius 18.911100
lthumb 7.208130 413.140015
rradius 31.796000
lwrist -20.042101
rhand -15.518100 0.681135
rhumerus -52.781101 -11.900800 -65.732201
lowerneck -6.241270 -3.872940 1.109030
lhand -19.100500 -336.717010
ltibia 55.659901
head 3.691420 -2.572740 -0.979791
rwrist 3.752880
lfingers 7.125020
rtoes -0.202586
lowerback 2.227110 -1.761350 0.943948
rfingers 7.125020
lclavicle -0.000000 -0.000000
upperneck 8.192360 -5.143820 -1.589330
rfemur -44.105801 -9.743300 24.750200
thorax -3.434930 -1.130610 0.906914
rclavicle -0.000000 -0.000000
rtibia 53.095501
lfoot -9.120070 7.408520
lhumerus -58.649300 24.947701 39.009201
rthumb 10.665000 -29.028200
root -31.187201 18.845400 -29.341999 1.252970 67.988602 -367.813995
ltoes -37.376598
lfemur -7.875950 5.223930 -9.081200
34
upperback -1.373780 -0.473805 1.829220
rfoot -16.534000 -18.372400
lradius 20.179899
lthumb 6.990710 410.790009
rradius 30.669901
lwrist -20.000200
rhand -10.908800 10.076900
rhumerus -45.361698 -9.456310 -62.750000
lowerneck -4.684470 -6.272750 -1.017370
lhand -19.325800 -339.074005
ltibia 51.615101
head 4.650790 -4.088570 -0.714728
rwrist 9.913030
lfingers 7.125020
rtoes -10.322900
lowerback 2.802080 -0.500204 3.061800
rfingers 7.125020
lclavicle -0.000000 0.000000
upperneck 11.546500 -8.141010 -1.330600
rfemur -31.472900 -9.338060 24.967199
thorax -2.995440 -0.269960 0.190230
rclavicle -0.000000 0.000000
rtibia 55.494202
lfoot -22.857000 7.225900
lhumerus -50.972698 22.043600 51.265301
rthumb 15.108400 -19.351601
root -29.624399 18.965000 -28.591999 -12.320800 70.062401 -375.562988
ltoes -11.430500
lfemur -28.932800 9.946010 -21.518801
35
upperback -1.225040 -3.225890 1.198100
rfoot 21.064899 -19.222200
lradius 18.135401
lthumb 3.439670 410.665985
rradius 25.639000
lwrist -33.016499
rhand -14.576500 15.425700
rhumerus -49.983799 -14.364700 -62.114498
lowerneck -4.985170 -3.116360 1.213130
lhand -23.003599 -339.286011
ltibia 36.544300
head 4.727930 -2.000880 -1.117580
rwrist 9.287220
lfingers 7.125020
rtoes 19.458401
lowerback 4.259450 -2.448790 -0.058458
rfingers 7.125020
lclavicle 0.000000 -0.000000
upperneck 11.750900 -4.022190 -1.993280
rfemur -49.451599 -11.097700 19.771500
thorax -3.575790 -1.588910 1.500130
rclavicle 0.000000 -0.000000
rtibia 33.604099
lfoot -16.292700 6.314790
lhumerus -40.817299 20.598801 59.925499
rthumb 11.573100 -14.234700
root -28.916500 19.634600 -28.837400 -8.407530 66.163597 -369.022003
ltoes 10.234200
lfemur -17.458799 15.305600 -23.894899
36
upperback -1.250150 -6.000990 3.028800
rfoot 39.618401 -21.482500
lradius 28.156500
lthumb 3.923910 416.860992
rradius 16.052500
lwrist -11.139600
rhand -9.781380 19.200500
rhumerus -58.404999 -19.100100 -44.381100
lowerneck -6.010610 -1.654380 1.274550
lhand -22.502100 -333.082001
ltibia 25.760700
head 3.928900 -1.084700 -1.580480
rwrist 20.616899
lfingers 7.125020
rtoes 29.482100
lowerback 5.678840 -4.829630 3.762650
rfingers 7.125020
lclavicle -0.000000 0.000000
upperneck 8.888180 -1.959140 -3.749790
rfemur -87.169197 -25.925600 31.303699
thorax -4.535440 -3.018030 1.617420
rclavicle -0.000000 0.000000
rtibia 41.112499
lfoot -11.612100 10.842900
lhumerus -26.428699 3.950370 70.076401
rthumb 16.194201 -10.143100
root -28.865700 20.117100 -29.308800 -14.621800 67.739197 -377.337006
ltoes 15.212000
lfemur -14.346100 11.904800 -23.134501
37
upperback -2.464650 -4.119010 3.873570
rfoot 42.188900 -21.069000
lradius 29.485300
lthumb 8.934580 424.191010
rradius 20.157101
lwrist -6.572070
rhand -21.108400 4.931660
rhumerus -50.545799 -11.074200 -50.083302
lowerneck -6.011030 -1.498230 2.000940
lhand -17.311701 -325.600006
ltibia 27.680401
head 3.276420 -1.020390 -1.764110
rwrist 16.069901
lfingers 7.125020
rtoes 36.885601
lowerback 4.458990 -3.560990 5.909360
rfingers 7.125020
lclavicle 0.000000 -0.000000
upperneck 7.027870 -1.856260 -4.031500
rfemur -86.353401 -40.534500 37.834000
thorax -5.207340 -2.142480 1.101060
rclavicle 0.000000 -0.000000
rtibia 100.194000
lfoot -13.513100 13.514400
lhumerus -28.554701 -1.053580 64.029602
rthumb 5.269640 -24.982800
root -28.937201 20.061800 -29.745199 -10.964900 63.910301 -378.148010
ltoes 19.407101
lfemur -20.610300 11.499200 -23.613899
38
upperback -4.055270 1.025170 1.691220
rfoot 30.064800 -28.303699
lradius 23.772200
lthumb 11.511100 425.161011
rradius 23.836300
lwrist -8.039100
rhand -28.097300 -5.773820
rhumerus -36.908901 -4.439730 -58.911598
lowerneck -7.257070 -2.518000 1.437660
lhand -14.640900 -324.502991
ltibia 32.980499
head 3.535950 -1.704200 -0.954354
rwrist 12.053500
lfingers 7.125020
rtoes 36.967201
lowerback 2.353260 0.536203 3.619340
rfingers 7.125020
lclavicle 0.000000 0.000000
upperneck 7.114030 -3.388260 -1.587580
rfemur -15.520700 -31.428301 17.352900
thorax -5.495050 0.413251 -0.346596
rclavicle 0.000000 0.000000
rtibia 68.687302
lfoot -13.976700 12.803800
lhumerus -42.113300 3.520660 51.597599
rthumb -1.479840 -35.748402
root -29.475800 19.759701 -30.121000 0.589232 55.558701 -370.595001
ltoes 19.713900
lfemur -31.786400 19.254499 -28.950300
39
upperback -5.446720 7.510830 -1.415830
rfoot -9.665840 -6.024140
lradius 19.266701
lthumb 15.177200 420.079010
rradius 29.295200
lwrist -14.302000
rhand -34.677601 -6.937420
rhumerus -14.057000 8.841350 -74.535599
lowerneck -7.817440 -1.513430 2.228300
lhand -10.837400 -329.343994
ltibia 45.034199
head 3.315370 -1.070760 -0.631204
rwrist 6.917330
lfingers 7.125020
rtoes 55.718201
lowerback 1.237300 5.510170 3.194690
rfingers 7.125020
lclavicle -0.000000 0.000000
upperneck 6.094060 -2.240500 -0.372245
rfemur 11.219900 -8.180590 22.399401
thorax -5.754930 3.564290 -3.675180
rclavicle -0.000000 0.000000
rtibia 30.155001
lfoot -15.151500 17.969999
lhumerus -57.512100 9.702350 46.710300
rthumb -7.833570 -36.772301
root -31.005699 18.936300 -31.275600 9.837380 38.265900 -367.160004
ltoes 22.424299
lfemur -55.261501 27.678801 -37.208000
40
upperback -4.829340 8.923530 -0.589798
rfoot -38.831902 -5.175210
lradius 19.568199
lthumb 16.749800 411.644989
rradius 44.519501
lwrist -16.666201
rhand -27.027599 -1.339930
rhumerus -9.832300 22.034201 -87.546097
lowerneck -5.000760 -0.603205 3.481590
lhand -9.204300 -337.652008
ltibia 61.225899
head 3.458820 -0.417741 -0.769666
rwrist 3.618860
lfingers 7.125020
rtoes 47.773602
lowerback 0.531118 6.513880 5.828900
rfingers 7.125020
lclavicle -0.000000 -0.000000
upperneck 8.034100 -1.049990 -0.340927
rfemur 16.079300 -3.647950 24.895599
thorax -4.344620 4.227600 -4.138870
rclavicle -0.000000 -0.000000
rtibia 22.188601
lfoot -7.915540 20.357800
lhumerus -62.922001 13.958900 53.658699
rthumb -0.446778 -31.319201
root -32.310398 17.923500 -32.557701 6.784480 31.152399 -368.643005
ltoes 12.001400
lfemur -67.415497 26.639000 -31.139900
41
upperback -3.899710 8.000390 0.457801
rfoot -40.417198 -6.621010
lradius 19.400400
lthumb 2.685760 416.016998
rradius 36.262901
lwrist -17.824900
rhand -27.221300 -2.186350
rhumerus -17.394400 25.083799 -96.917999
lowerneck -3.254470 -0.523266 4.424890
lhand -23.784201 -333.946014
ltibia 47.430698
head 3.161900 -0.321161 -0.925761
rwrist 9.271900
lfingers 7.125020
rtoes 34.578701
lowerback -0.405458 5.880930 6.134940
rfingers 7.125020
lclavicle -0.000000 -0.000000
upperneck 8.135970 -0.920197 -0.373362
rfemur 24.756001 -2.608570 24.016500
thorax -3.050220 3.835310 -3.049040
rclavicle -0.000000 -0.000000
rtibia 17.681000
lfoot 13.144400 4.375000
lhumerus -59.866001 14.981300 42.865601
rthumb -0.633792 -32.165199
root -31.688400 17.307100 -32.292198 2.279680 31.075500 -369.062012
ltoes 15.024800
lfemur -58.846600 4.632600 -0.823336
42
upperback -5.522380 9.194420 -0.944858
rfoot -22.163700 -11.796400
lradius 20.537901
lthumb -3.392070 390.276001
rradius 24.056999
lwrist -14.516800
rhand -34.018600 -6.446490
rhumerus -23.308701 4.614130 -85.067398
lowerneck -5.133770 0.384400 6.279290
lhand -30.077299 -359.677002
ltibia 61.678501
head 2.422440 0.139114 -1.815340
rwrist 9.823770
lfingers 7.125020
rtoes -1.907960
lowerback -0.838530 6.809910 3.275840
rfingers 7.125020
lclavicle -0.000000 0.000000
upperneck 4.729230 0.176329 -2.242200
rfemur 27.261299 2.262130 11.685200
thorax -4.592710 4.447580 -3.023040
rclavicle -0.000000 0.000000
rtibia 10.752600
lfoot -6.277640 -9.259840
lhumerus -47.212299 13.194500 42.073700
rthumb -7.197520 -36.304100
root -28.965700 16.893000 -30.997801 10.662200 25.523100 -363.746002
ltoes -10.456600
lfemur -63.735901 -2.481720 0.144208
